<?xml version="1.0" ?><svg height="48px" version="1.1" viewBox="0 0 48 48" width="48px" xmlns="http://www.w3.org/2000/svg" xmlns:xlink="http://www.w3.org/1999/xlink"><title/><desc/><g fill="none" fill-rule="evenodd" id="Page-1" stroke="none" stroke-width="1"><g id="Artboard-Copy" transform="translate(-167.000000, -729.000000)"><path d="M193.981,738.4609 C193.979,737.0469 192.874,736.0019 191.477,735.9999 C190.081,735.9999 189.005,737.1699 189.007,738.5859 L189.031,759.2849 L183.313,753.5219 C182.326,752.5219 180.725,752.5199 179.737,753.5179 C178.752,754.5159 178.754,756.1369 179.742,757.1389 L189.585,767.1059 L189.656,767.1739 C190.119,767.6819 190.781,767.9999 191.515,767.9999 C192.249,768.0019 192.912,767.6859 193.372,767.1799 L193.44,767.1089 L203.262,757.1639 C204.247,756.1659 204.247,754.5449 203.257,753.5449 C202.27,752.5449 200.669,752.5409 199.682,753.5409 L194.005,759.1599 L193.981,738.4609 Z" fill="#000000" id="arrow3"/><g id="slices" transform="translate(47.000000, 9.000000)"/></g></g></svg>