<svg width="162" height="84" viewBox="0 0 162 84" fill="none" xmlns="http://www.w3.org/2000/svg">
<path d="M102.25 74.72L158.75 18.22C159.698 17.3169 160.452 16.2308 160.967 15.0276C161.483 13.8243 161.748 12.529 161.748 11.22C161.748 9.91102 161.483 8.61565 160.967 7.41241C160.452 6.20917 159.698 5.1231 158.75 4.22001C157.847 3.27244 156.761 2.5181 155.558 2.00268C154.354 1.48726 153.059 1.2215 151.75 1.2215C150.441 1.2215 149.146 1.48726 147.942 2.00268C146.739 2.5181 145.653 3.27244 144.75 4.22001L88.25 60.72C87.3469 61.6676 86.2608 62.4219 85.0576 62.9373C83.8544 63.4527 82.559 63.7185 81.25 63.7185C79.941 63.7185 78.6456 63.4527 77.4424 62.9373C76.2392 62.4219 75.1531 61.6676 74.25 60.72L17.25 3.72001C15.3871 1.89437 12.879 0.877669 10.2707 0.890843C7.66241 0.904016 5.16471 1.94599 3.32035 3.79036C1.47599 5.63472 0.434003 8.13242 0.42083 10.7407C0.407656 13.349 1.42435 15.8571 3.24999 17.72L59.75 74.22C71.75 86.22 90.75 86.22 102.25 74.72Z" fill="black"/>
</svg>
