<svg width="1231" height="312" viewBox="0 0 1231 312" fill="none" xmlns="http://www.w3.org/2000/svg">
<path fill-rule="evenodd" clip-rule="evenodd" d="M30.3745 217.639C97.0146 199.737 121.805 162.167 114.581 124.597C107.081 85.5973 51.5805 95.5974 51.5805 95.5974C82.2703 67.5331 100.498 57.9043 136.081 59.0974C164.27 63.7776 177.938 72.4979 206.98 91.0275C208.785 92.1791 210.65 93.3686 212.581 94.5974C219.181 98.7974 225.181 102.797 230.761 106.517C250.866 119.921 265.519 129.69 283.139 132.081C275.48 63.9532 217.674 11 147.5 11C72.1131 11 11 72.1131 11 147.5C11 173.146 18.0729 197.141 30.3745 217.639ZM295 147.5C295 228.962 228.962 295 147.5 295C66.038 295 0 228.962 0 147.5C0 66.038 66.038 0 147.5 0C228.962 0 295 66.038 295 147.5Z" fill="url(#paint0_linear_0_1)"/>
<path d="M412.638 203.788C430.721 203.788 443.204 200.433 450.088 193.725C456.971 187.017 460.413 178.792 460.413 169.05C460.413 159.075 457.321 152.046 451.138 147.962C444.954 143.821 434.192 139.971 418.85 136.412C408.35 133.962 400.096 131.425 394.088 128.8C388.138 126.175 385.163 121.654 385.163 115.237C385.163 110.221 387.525 106.196 392.25 103.162C396.975 100.071 403.596 98.525 412.113 98.525C420.396 98.525 426.929 100.333 431.713 103.95C436.496 107.508 438.888 115.325 438.888 127.4H460.325C460.325 113.05 456.854 102.229 449.913 94.9375C443.029 87.5875 430.488 83.9125 412.288 83.9125C394.438 83.9125 381.983 87.2083 374.925 93.8C367.925 100.392 364.425 108.325 364.425 117.6C364.425 127.517 367.546 134.692 373.788 139.125C380.029 143.5 390.617 147.437 405.55 150.937C416.225 153.387 424.508 155.896 430.4 158.462C436.35 161.029 439.325 165.55 439.325 172.025C439.325 177.392 436.963 181.592 432.238 184.625C427.571 187.658 420.979 189.175 412.463 189.175C403.946 189.175 397.354 187.367 392.688 183.75C388.079 180.075 385.775 172.025 385.775 159.6H364.338C364.338 174.767 367.75 185.937 374.575 193.112C381.4 200.229 394.088 203.788 412.638 203.788ZM547.546 203H563.909V99.3125H542.821V185.762L547.546 203ZM497.584 99.225H476.496V158.025C476.496 172.317 478.975 183.546 483.934 191.712C488.892 199.821 497.642 203.875 510.184 203.875C523.542 203.875 534.042 199.908 541.684 191.975C549.384 184.042 553.234 175.758 553.234 167.125L542.909 161.7C542.909 169.808 540.459 176.429 535.559 181.562C530.659 186.637 524.709 189.175 517.709 189.175C510.884 189.175 505.809 186.812 502.484 182.087C499.217 177.362 497.584 169.05 497.584 157.15V99.225ZM646.336 148.487H667.511C667.511 131.162 665.178 118.475 660.511 110.425C655.845 102.375 647.299 98.35 634.874 98.35C623.09 98.35 613.67 101.558 606.611 107.975C599.553 114.333 596.024 122.092 596.024 131.25L604.161 136.762C604.161 130.637 606.203 125.183 610.286 120.4C614.37 115.558 619.999 113.137 627.174 113.137C633.415 113.137 638.17 115.558 641.436 120.4C644.703 125.242 646.336 134.604 646.336 148.487ZM583.161 203H604.249V118.737L599.611 99.3125H583.161V203ZM698.704 203H719.791V113.925H748.929V99.3125H719.704L719.791 93.8875C719.791 87.9375 722.125 83.9708 726.791 81.9875C731.458 80.0042 738.254 79.0125 747.179 79.0125H749.979V64.925H746.741C731.866 64.925 720.141 67.1125 711.566 71.4875C702.991 75.8042 698.704 83.2417 698.704 93.8L698.791 99.3125H677.529V113.925H698.704V203ZM811.173 203.788C829.256 203.788 841.739 200.433 848.623 193.725C855.506 187.017 858.948 178.792 858.948 169.05C858.948 159.075 855.856 152.046 849.673 147.962C843.489 143.821 832.727 139.971 817.385 136.412C806.885 133.962 798.631 131.425 792.623 128.8C786.673 126.175 783.698 121.654 783.698 115.237C783.698 110.221 786.06 106.196 790.785 103.162C795.51 100.071 802.131 98.525 810.648 98.525C818.931 98.525 825.464 100.333 830.248 103.95C835.031 107.508 837.423 115.325 837.423 127.4H858.86C858.86 113.05 855.389 102.229 848.448 94.9375C841.564 87.5875 829.023 83.9125 810.823 83.9125C792.973 83.9125 780.518 87.2083 773.46 93.8C766.46 100.392 762.96 108.325 762.96 117.6C762.96 127.517 766.081 134.692 772.323 139.125C778.564 143.5 789.152 147.437 804.085 150.937C814.76 153.387 823.043 155.896 828.935 158.462C834.885 161.029 837.86 165.55 837.86 172.025C837.86 177.392 835.498 181.592 830.773 184.625C826.106 187.658 819.514 189.175 810.998 189.175C802.481 189.175 795.889 187.367 791.223 183.75C786.614 180.075 784.31 172.025 784.31 159.6H762.873C762.873 174.767 766.285 185.937 773.11 193.112C779.935 200.229 792.623 203.788 811.173 203.788ZM894.981 203H923.681L946.956 99.3125H931.294L909.944 190.138H910.469L894.894 99.3125H872.931L894.981 203ZM960.256 203H988.606L1010.48 99.3125H988.606L973.469 190.05H974.081L952.731 99.3125H936.719L960.256 203ZM1057.28 204.05C1062.24 204.05 1066.7 203.613 1070.67 202.737C1074.7 201.862 1078.17 200.754 1081.08 199.412C1084 198.012 1086.36 196.525 1088.17 194.95C1090.04 193.317 1091.26 191.742 1091.85 190.225L1093.68 203H1111.36V137.462C1111.36 127.779 1109.52 120.108 1105.85 114.45C1102.23 108.733 1097.01 104.621 1090.18 102.113C1083.42 99.6042 1075.34 98.35 1065.95 98.35C1059.88 98.35 1054.28 98.9333 1049.15 100.1C1044.01 101.208 1039.49 102.987 1035.58 105.437C1031.67 107.829 1028.47 110.979 1025.96 114.887C1023.51 118.737 1021.85 123.404 1020.97 128.887L1041.62 134.575C1042.44 129.267 1043.92 125.037 1046.08 121.887C1048.3 118.679 1051.1 116.346 1054.48 114.887C1057.87 113.429 1061.72 112.7 1066.03 112.7C1070.76 112.7 1074.93 113.487 1078.55 115.063C1082.16 116.579 1084.99 119.087 1087.03 122.587C1089.07 126.029 1090.1 130.637 1090.1 136.412V141.75H1056.58C1052.85 141.75 1049.17 142.012 1045.56 142.537C1042 143.004 1038.67 143.879 1035.58 145.162C1032.49 146.446 1029.78 148.254 1027.45 150.587C1025.11 152.862 1023.27 155.808 1021.93 159.425C1020.59 162.983 1019.92 167.329 1019.92 172.462C1019.92 177.771 1020.59 182.292 1021.93 186.025C1023.27 189.758 1025.14 192.792 1027.53 195.125C1029.92 197.458 1032.7 199.296 1035.85 200.637C1039 201.921 1042.38 202.796 1046 203.263C1049.67 203.788 1053.43 204.05 1057.28 204.05ZM1061.92 190.487C1059.3 190.487 1056.73 190.254 1054.22 189.787C1051.77 189.262 1049.58 188.329 1047.66 186.987C1045.73 185.646 1044.19 183.779 1043.02 181.387C1041.91 178.937 1041.36 175.787 1041.36 171.937C1041.36 168.087 1041.88 164.967 1042.93 162.575C1044.04 160.125 1045.53 158.258 1047.4 156.975C1049.26 155.692 1051.39 154.817 1053.78 154.35C1056.23 153.883 1058.8 153.65 1061.48 153.65H1090.62L1090.1 177.45C1089.57 179.2 1088.49 180.862 1086.86 182.437C1085.22 184.012 1083.15 185.412 1080.65 186.637C1078.14 187.862 1075.28 188.825 1072.07 189.525C1068.92 190.167 1065.54 190.487 1061.92 190.487ZM1129.69 241.763H1150.78V116.637L1146.14 99.3125H1129.69V241.763ZM1183.77 203.7C1196.72 203.7 1206.29 199.208 1212.47 190.225C1218.65 181.183 1221.74 168.087 1221.74 150.937C1221.74 133.729 1218.65 120.662 1212.47 111.737C1206.29 102.812 1196.72 98.35 1183.77 98.35C1172.16 98.35 1162.22 101.208 1153.93 106.925C1145.65 112.642 1141.51 118.708 1141.51 125.125L1150.78 135.45C1150.78 129.558 1153.32 124.367 1158.39 119.875C1163.47 115.325 1169.54 113.05 1176.59 113.05C1184 113.05 1189.81 115.733 1194.01 121.1C1198.21 126.408 1200.31 136.383 1200.31 151.025C1200.31 165.725 1198.21 175.758 1194.01 181.125C1189.81 186.433 1184 189.087 1176.59 189.087C1169.54 189.087 1163.47 186.842 1158.39 182.35C1153.32 177.858 1150.78 172.608 1150.78 166.6L1141.51 177.012C1141.51 183.429 1145.65 189.496 1153.93 195.212C1162.22 200.871 1172.16 203.7 1183.77 203.7Z" fill="url(#paint1_linear_0_1)"/>
<defs>
<linearGradient id="paint0_linear_0_1" x1="147.5" y1="0" x2="147.5" y2="295" gradientUnits="userSpaceOnUse">
<stop stop-color="#3745C1"/>
<stop offset="1" stop-color="#021BFF" stop-opacity="0"/>
</linearGradient>
<linearGradient id="paint1_linear_0_1" x1="794.5" y1="64" x2="794.5" y2="245" gradientUnits="userSpaceOnUse">
<stop stop-color="#3745C1"/>
<stop offset="1" stop-color="#001AFF" stop-opacity="0"/>
</linearGradient>
</defs>
</svg>
