<svg width="493" height="133" viewBox="0 0 493 133" fill="none" xmlns="http://www.w3.org/2000/svg">
<path d="M473.776 74.0708C468.66 90.8023 461.479 104.934 454.179 114.265C450.518 118.944 446.995 122.201 443.891 124.045C440.788 125.888 438.598 126.057 437.107 125.602C435.617 125.146 433.895 123.781 432.354 120.518C430.812 117.253 429.712 112.583 429.294 106.656C428.46 94.8391 430.408 79.1074 435.524 62.3759C440.639 45.6444 447.821 31.5128 455.12 22.1821C458.781 17.5028 462.304 14.2461 465.409 12.4017C468.511 10.5582 470.702 10.3894 472.192 10.845C473.682 11.3007 475.404 12.6656 476.945 15.9288C478.487 19.1936 479.587 23.8637 480.005 29.7902C480.839 41.6076 478.891 57.3393 473.776 74.0708Z" stroke="url(#paint0_linear_0_1)" stroke-width="10"/>
<mask id="path-2-inside-1_0_1" fill="white">
<path d="M411.854 102.171C416.21 87.9234 431.292 79.9045 445.539 84.2605L450.877 85.8924C452.167 86.2867 452.893 87.6518 452.498 88.9415L447.657 104.776C446.042 110.058 440.452 113.03 435.17 111.415L413.198 104.698C412.129 104.371 411.528 103.24 411.854 102.171V102.171Z"/>
</mask>
<path d="M411.854 102.171C416.21 87.9234 431.292 79.9045 445.539 84.2605L450.877 85.8924C452.167 86.2867 452.893 87.6518 452.498 88.9415L447.657 104.776C446.042 110.058 440.452 113.03 435.17 111.415L413.198 104.698C412.129 104.371 411.528 103.24 411.854 102.171V102.171Z" stroke="url(#paint1_linear_0_1)" stroke-width="20" mask="url(#path-2-inside-1_0_1)"/>
<path d="M25.908 96.914C40.872 96.914 47.15 91.754 47.15 79.628C47.15 58.214 12.148 67.588 12.148 53.054C12.148 45.4 15.502 42.906 25.306 42.906C35.282 42.906 39.84 45.916 39.84 54.688H46.376C46.376 42.218 40.27 36.886 25.908 36.886C11.546 36.886 5.354 42.046 5.354 54.172C5.354 74.468 40.356 64.75 40.356 80.746C40.356 88.314 36.314 90.034 25.908 90.034C15.33 90.034 11.116 87.97 11.116 79.112H4.58C4.58 91.582 10.944 96.914 25.908 96.914ZM98.9912 36.714H91.4232V73.522C91.4232 85.562 86.7792 89.518 75.5992 89.518C64.3332 89.518 59.6892 85.562 59.6892 73.522V36.8H52.1212V73.522C52.1212 90.034 59.1732 97.086 75.5992 97.086C91.9392 97.086 98.9912 90.034 98.9912 73.522V36.714ZM104.779 97.086H112.347V74.124H130.923L143.393 97H151.477L138.233 73.264C147.349 71.286 151.305 65.266 151.305 55.72C151.305 44.024 145.199 36.886 130.493 36.886H104.779V97.086ZM112.347 68.276V42.906H130.149C139.781 42.906 143.737 47.034 143.737 55.634C143.737 64.062 139.695 68.276 130.149 68.276H112.347ZM156.34 97H163.908V69.996H193.32V62.514H163.908V44.282H201.146V36.8H156.34V97ZM223.103 96.914C238.067 96.914 244.345 91.754 244.345 79.628C244.345 58.214 209.343 67.588 209.343 53.054C209.343 45.4 212.697 42.906 222.501 42.906C232.477 42.906 237.035 45.916 237.035 54.688H243.571C243.571 42.218 237.465 36.886 223.103 36.886C208.741 36.886 202.549 42.046 202.549 54.172C202.549 74.468 237.551 64.75 237.551 80.746C237.551 88.314 233.509 90.034 223.103 90.034C212.525 90.034 208.311 87.97 208.311 79.112H201.775C201.775 91.582 208.139 96.914 223.103 96.914ZM269.739 97L281.607 60.622L293.475 97L316.007 36.8H308.267L293.561 75.586L281.607 36.8L269.653 75.586L254.947 36.8H247.207L269.739 97ZM299.779 97H307.433L315.259 79.542H337.103L344.585 97H352.497L326.095 36.8L299.779 97ZM317.581 73.092L326.095 54.258L334.437 73.092H317.581ZM357.31 97H364.878V70.942L381.046 70.856C393.946 70.77 402.374 65.782 402.46 53.914V53.828C402.374 42.046 393.946 37.058 381.046 36.972L357.31 36.8V97ZM364.878 64.234V43.594H380.186C390.42 43.594 395.15 45.916 395.15 53.914C395.15 61.912 390.42 64.234 380.186 64.234H364.878Z" fill="url(#paint2_linear_0_1)"/>
<path d="M39.84 54.688H33.84V60.688H39.84V54.688ZM46.376 54.688V60.688H52.376V54.688H46.376ZM11.116 79.112H17.116V73.112H11.116V79.112ZM4.58 79.112V73.112H-1.42V79.112H4.58ZM25.908 102.914C33.8361 102.914 40.8709 101.596 45.9328 97.4678C51.2943 93.0949 53.15 86.6858 53.15 79.628H41.15C41.15 84.6962 39.8667 86.9301 38.3482 88.1687C36.5301 89.6516 32.9439 90.914 25.908 90.914V102.914ZM53.15 79.628C53.15 72.2535 49.9585 67.0477 45.1838 63.6143C40.8569 60.5029 35.429 59.0027 31.0806 57.9343C26.199 56.7349 22.7163 56.0599 20.111 54.8692C18.9328 54.3308 18.4668 53.9012 18.3063 53.7039C18.2508 53.6356 18.148 53.5415 18.148 53.054H6.148C6.148 56.2 7.13905 58.9922 8.99767 61.2768C10.7514 63.4325 13.0199 64.8223 15.1231 65.7835C19.0807 67.5921 24.3485 68.6371 28.2174 69.5877C32.6195 70.6693 35.9421 71.7491 38.1781 73.3569C39.9663 74.6428 41.15 76.2955 41.15 79.628H53.15ZM18.148 53.054C18.148 51.5263 18.3228 50.6857 18.4761 50.2563C18.592 49.9314 18.6689 49.896 18.698 49.8738C19.0504 49.6039 20.5215 48.906 25.306 48.906V36.906C20.2865 36.906 15.1786 37.4551 11.403 40.3457C7.1334 43.6147 6.148 48.5119 6.148 53.054H18.148ZM25.306 48.906C29.9792 48.906 31.8945 49.6735 32.6392 50.2505C32.9926 50.5243 33.84 51.2987 33.84 54.688H45.84C45.84 49.3053 44.4084 44.1887 39.9888 40.7645C35.9605 37.6435 30.6088 36.906 25.306 36.906V48.906ZM39.84 60.688H46.376V48.688H39.84V60.688ZM52.376 54.688C52.376 47.5581 50.621 41.0718 45.4674 36.5853C40.5137 32.2729 33.6101 30.886 25.908 30.886V42.886C32.5679 42.886 35.8983 44.1651 37.5881 45.6362C39.078 46.9332 40.376 49.3479 40.376 54.688H52.376ZM25.908 30.886C18.2373 30.886 11.3535 32.2187 6.38818 36.3858C1.17074 40.7644 -0.646 47.1422 -0.646 54.172H11.354C11.354 49.0758 12.6333 46.8106 14.1023 45.5777C15.8235 44.1332 19.2167 42.886 25.908 42.886V30.886ZM-0.646 54.172C-0.646 61.4273 2.69511 66.4217 7.48921 69.6257C11.7871 72.4979 17.19 73.8789 21.4504 74.9048C26.2363 76.0571 29.6952 76.8007 32.1844 78.0565C33.3033 78.621 33.7967 79.0965 34.014 79.3928C34.1633 79.5963 34.356 79.9306 34.356 80.746H46.356C46.356 77.5624 45.4549 74.7012 43.69 72.2952C41.9931 69.9819 39.752 68.4337 37.5895 67.3427C33.5158 65.2875 28.2242 64.1928 24.2596 63.2382C19.7695 62.1571 16.4219 61.1623 14.1569 59.6486C12.3881 58.4665 11.354 57.0647 11.354 54.172H-0.646ZM34.356 80.746C34.356 82.1608 34.1581 82.7741 34.0738 82.9649C34.0481 83.023 34.0774 83.0055 33.9649 83.0725C33.725 83.2154 33.0832 83.4983 31.6555 83.7149C30.2456 83.9288 28.3846 84.034 25.908 84.034V96.034C31.0058 96.034 36.2051 95.7045 40.1036 93.3835C44.9572 90.4939 46.356 85.6365 46.356 80.746H34.356ZM25.908 84.034C23.4143 84.034 21.5628 83.9087 20.1759 83.6642C18.7879 83.4195 18.1724 83.1063 17.9301 82.9407C17.7928 82.8468 17.6759 82.751 17.5309 82.3786C17.338 81.8832 17.116 80.9074 17.116 79.112H5.116C5.116 84.3782 6.38807 89.5881 11.1604 92.8488C15.2216 95.6236 20.6687 96.034 25.908 96.034V84.034ZM11.116 73.112H4.58V85.112H11.116V73.112ZM-1.42 79.112C-1.42 86.314 0.440212 92.8282 5.78577 97.2939C10.8706 101.542 17.946 102.914 25.908 102.914V90.914C18.906 90.914 15.3174 89.6203 13.4792 88.0846C11.9018 86.7668 10.58 84.38 10.58 79.112H-1.42ZM98.9912 36.714H104.991V30.714H98.9912V36.714ZM91.4232 36.714V30.714H85.4232V36.714H91.4232ZM59.6892 36.8H65.6892V30.8H59.6892V36.8ZM52.1212 36.8V30.8H46.1212V36.8H52.1212ZM98.9912 30.714H91.4232V42.714H98.9912V30.714ZM85.4232 36.714V73.522H97.4232V36.714H85.4232ZM85.4232 73.522C85.4232 79.0201 84.3145 80.9598 83.5156 81.7385C82.6857 82.5475 80.7529 83.518 75.5992 83.518V95.518C81.6255 95.518 87.6047 94.5105 91.8918 90.3315C96.2099 86.1222 97.4232 80.0639 97.4232 73.522H85.4232ZM75.5992 83.518C70.3927 83.518 68.4372 82.5438 67.5986 81.7298C66.7982 80.9529 65.6892 79.0208 65.6892 73.522H53.6892C53.6892 80.0632 54.9022 86.1291 59.2403 90.3402C63.5402 94.5142 69.5397 95.518 75.5992 95.518V83.518ZM65.6892 73.522V36.8H53.6892V73.522H65.6892ZM59.6892 30.8H52.1212V42.8H59.6892V30.8ZM46.1212 36.8V73.522H58.1212V36.8H46.1212ZM46.1212 73.522C46.1212 82.4664 48.0078 90.2733 53.4518 95.7327C58.8999 101.196 66.6905 103.086 75.5992 103.086V91.086C68.0819 91.086 64.1335 89.45 61.9491 87.2593C59.7606 85.0647 58.1212 81.0896 58.1212 73.522H46.1212ZM75.5992 103.086C84.4725 103.086 92.2421 101.193 97.6773 95.7267C103.105 90.2687 104.991 82.4666 104.991 73.522H92.9912C92.9912 81.0894 91.3518 85.0693 89.1681 87.2653C86.9923 89.4534 83.066 91.086 75.5992 91.086V103.086ZM104.991 73.522V36.714H92.9912V73.522H104.991ZM104.779 97.086H98.7794V103.086H104.779V97.086ZM112.347 97.086V103.086H118.347V97.086H112.347ZM112.347 74.124V68.124H106.347V74.124H112.347ZM130.923 74.124L136.192 71.2523L134.486 68.124H130.923V74.124ZM143.393 97L138.125 99.8717L139.831 103H143.393V97ZM151.477 97V103H161.696L156.717 94.0765L151.477 97ZM138.233 73.264L136.961 67.4004L129.049 69.1173L132.994 76.1875L138.233 73.264ZM104.779 36.886V30.886H98.7794V36.886H104.779ZM112.347 68.276H106.347V74.276H112.347V68.276ZM112.347 42.906V36.906H106.347V42.906H112.347ZM104.779 103.086H112.347V91.086H104.779V103.086ZM118.347 97.086V74.124H106.347V97.086H118.347ZM112.347 80.124H130.923V68.124H112.347V80.124ZM125.655 76.9957L138.125 99.8717L148.662 94.1283L136.192 71.2523L125.655 76.9957ZM143.393 103H151.477V91H143.393V103ZM156.717 94.0765L143.473 70.3405L132.994 76.1875L146.238 99.9235L156.717 94.0765ZM139.506 79.1276C145.167 77.8992 149.871 75.2453 153.051 70.8442C156.162 66.5394 157.305 61.2639 157.305 55.72H145.305C145.305 59.7221 144.471 62.2296 143.325 63.8158C142.248 65.3057 140.416 66.6508 136.961 67.4004L139.506 79.1276ZM157.305 55.72C157.305 48.8805 155.507 42.3532 150.58 37.5992C145.692 32.8827 138.728 30.886 130.493 30.886V42.886C136.965 42.886 140.407 44.4583 142.248 46.2348C144.05 47.9738 145.305 50.8635 145.305 55.72H157.305ZM130.493 30.886H104.779V42.886H130.493V30.886ZM98.7794 36.886V97.086H110.779V36.886H98.7794ZM118.347 68.276V42.906H106.347V68.276H118.347ZM112.347 48.906H130.149V36.906H112.347V48.906ZM130.149 48.906C134.27 48.906 135.816 49.8118 136.398 50.3716C136.925 50.8772 137.737 52.1339 137.737 55.634H149.737C149.737 50.5341 148.572 45.4268 144.712 41.7184C140.909 38.0642 135.661 36.906 130.149 36.906V48.906ZM137.737 55.634C137.737 58.9848 136.934 60.246 136.377 60.7787C135.76 61.3684 134.182 62.276 130.149 62.276V74.276C135.663 74.276 140.879 73.0766 144.67 69.4523C148.52 65.771 149.737 60.7112 149.737 55.634H137.737ZM130.149 62.276H112.347V74.276H130.149V62.276ZM156.34 97H150.34V103H156.34V97ZM163.908 97V103H169.908V97H163.908ZM163.908 69.996V63.996H157.908V69.996H163.908ZM193.32 69.996V75.996H199.32V69.996H193.32ZM193.32 62.514H199.32V56.514H193.32V62.514ZM163.908 62.514H157.908V68.514H163.908V62.514ZM163.908 44.282V38.282H157.908V44.282H163.908ZM201.146 44.282V50.282H207.146V44.282H201.146ZM201.146 36.8H207.146V30.8H201.146V36.8ZM156.34 36.8V30.8H150.34V36.8H156.34ZM156.34 103H163.908V91H156.34V103ZM169.908 97V69.996H157.908V97H169.908ZM163.908 75.996H193.32V63.996H163.908V75.996ZM199.32 69.996V62.514H187.32V69.996H199.32ZM193.32 56.514H163.908V68.514H193.32V56.514ZM169.908 62.514V44.282H157.908V62.514H169.908ZM163.908 50.282H201.146V38.282H163.908V50.282ZM207.146 44.282V36.8H195.146V44.282H207.146ZM201.146 30.8H156.34V42.8H201.146V30.8ZM150.34 36.8V97H162.34V36.8H150.34ZM237.035 54.688H231.035V60.688H237.035V54.688ZM243.571 54.688V60.688H249.571V54.688H243.571ZM208.311 79.112H214.311V73.112H208.311V79.112ZM201.775 79.112V73.112H195.775V79.112H201.775ZM223.103 102.914C231.031 102.914 238.066 101.596 243.128 97.4678C248.49 93.0949 250.345 86.6858 250.345 79.628H238.345C238.345 84.6962 237.062 86.9301 235.544 88.1687C233.725 89.6516 230.139 90.914 223.103 90.914V102.914ZM250.345 79.628C250.345 72.2535 247.154 67.0477 242.379 63.6143C238.052 60.5029 232.624 59.0027 228.276 57.9343C223.394 56.7349 219.912 56.0599 217.306 54.8692C216.128 54.3308 215.662 53.9012 215.502 53.7039C215.446 53.6356 215.343 53.5415 215.343 53.054H203.343C203.343 56.2 204.334 58.9922 206.193 61.2768C207.947 63.4325 210.215 64.8223 212.318 65.7835C216.276 67.5921 221.544 68.6371 225.413 69.5877C229.815 70.6693 233.137 71.7491 235.373 73.3569C237.162 74.6428 238.345 76.2955 238.345 79.628H250.345ZM215.343 53.054C215.343 51.5263 215.518 50.6857 215.671 50.2563C215.787 49.9314 215.864 49.896 215.893 49.8738C216.246 49.6039 217.717 48.906 222.501 48.906V36.906C217.482 36.906 212.374 37.4551 208.598 40.3457C204.329 43.6147 203.343 48.5119 203.343 53.054H215.343ZM222.501 48.906C227.175 48.906 229.09 49.6735 229.835 50.2505C230.188 50.5243 231.035 51.2987 231.035 54.688H243.035C243.035 49.3053 241.604 44.1887 237.184 40.7645C233.156 37.6435 227.804 36.906 222.501 36.906V48.906ZM237.035 60.688H243.571V48.688H237.035V60.688ZM249.571 54.688C249.571 47.5581 247.816 41.0718 242.663 36.5853C237.709 32.2729 230.805 30.886 223.103 30.886V42.886C229.763 42.886 233.094 44.1651 234.783 45.6362C236.273 46.9332 237.571 49.3479 237.571 54.688H249.571ZM223.103 30.886C215.433 30.886 208.549 32.2187 203.583 36.3858C198.366 40.7644 196.549 47.1422 196.549 54.172H208.549C208.549 49.0758 209.829 46.8106 211.298 45.5777C213.019 44.1332 216.412 42.886 223.103 42.886V30.886ZM196.549 54.172C196.549 61.4273 199.89 66.4217 204.685 69.6257C208.982 72.4979 214.385 73.8789 218.646 74.9048C223.432 76.0571 226.891 76.8007 229.38 78.0565C230.499 78.621 230.992 79.0965 231.209 79.3928C231.359 79.5963 231.551 79.9306 231.551 80.746H243.551C243.551 77.5624 242.65 74.7012 240.885 72.2952C239.188 69.9819 236.947 68.4337 234.785 67.3427C230.711 65.2875 225.42 64.1928 221.455 63.2382C216.965 62.1571 213.617 61.1623 211.352 59.6486C209.583 58.4665 208.549 57.0647 208.549 54.172H196.549ZM231.551 80.746C231.551 82.1608 231.353 82.7741 231.269 82.9649C231.243 83.023 231.273 83.0055 231.16 83.0725C230.92 83.2154 230.278 83.4983 228.851 83.7149C227.441 83.9288 225.58 84.034 223.103 84.034V96.034C228.201 96.034 233.4 95.7045 237.299 93.3835C242.153 90.4939 243.551 85.6365 243.551 80.746H231.551ZM223.103 84.034C220.61 84.034 218.758 83.9087 217.371 83.6642C215.983 83.4195 215.368 83.1063 215.125 82.9407C214.988 82.8468 214.871 82.751 214.726 82.3786C214.533 81.8832 214.311 80.9074 214.311 79.112H202.311C202.311 84.3782 203.583 89.5881 208.356 92.8488C212.417 95.6236 217.864 96.034 223.103 96.034V84.034ZM208.311 73.112H201.775V85.112H208.311V73.112ZM195.775 79.112C195.775 86.314 197.636 92.8282 202.981 97.2939C208.066 101.542 215.141 102.914 223.103 102.914V90.914C216.101 90.914 212.513 89.6203 210.675 88.0846C209.097 86.7668 207.775 84.38 207.775 79.112H195.775ZM269.739 97L264.12 99.1032L270.127 115.155L275.443 98.8609L269.739 97ZM281.607 60.622L287.311 58.7611L281.607 41.2767L275.903 58.7611L281.607 60.622ZM293.475 97L287.771 98.8609L293.086 115.155L299.094 99.1032L293.475 97ZM316.007 36.8L321.626 38.9032L324.659 30.8H316.007V36.8ZM308.267 36.8V30.8H304.125L302.657 34.6728L308.267 36.8ZM293.561 75.586L287.827 77.3532L292.975 94.0556L299.171 77.7132L293.561 75.586ZM281.607 36.8L287.341 35.0328L281.607 16.4287L275.873 35.0328L281.607 36.8ZM269.653 75.586L264.043 77.7132L270.239 94.0556L275.387 77.3532L269.653 75.586ZM254.947 36.8L260.557 34.6728L259.089 30.8H254.947V36.8ZM247.207 36.8V30.8H238.555L241.588 38.9032L247.207 36.8ZM275.443 98.8609L287.311 62.4829L275.903 58.7611L264.035 95.1391L275.443 98.8609ZM275.903 62.4829L287.771 98.8609L299.179 95.1391L287.311 58.7611L275.903 62.4829ZM299.094 99.1032L321.626 38.9032L310.388 34.6968L287.856 94.8968L299.094 99.1032ZM316.007 30.8H308.267V42.8H316.007V30.8ZM302.657 34.6728L287.951 73.4588L299.171 77.7132L313.877 38.9272L302.657 34.6728ZM299.295 73.8188L287.341 35.0328L275.873 38.5672L287.827 77.3532L299.295 73.8188ZM275.873 35.0328L263.919 73.8188L275.387 77.3532L287.341 38.5672L275.873 35.0328ZM275.263 73.4588L260.557 34.6728L249.337 38.9272L264.043 77.7132L275.263 73.4588ZM254.947 30.8H247.207V42.8H254.947V30.8ZM241.588 38.9032L264.12 99.1032L275.358 94.8968L252.826 34.6968L241.588 38.9032ZM299.779 97L294.281 94.5967L290.608 103H299.779V97ZM307.433 97V103H311.319L312.908 99.4543L307.433 97ZM315.259 79.542V73.542H311.373L309.784 77.0877L315.259 79.542ZM337.103 79.542L342.618 77.1785L341.059 73.542H337.103V79.542ZM344.585 97L339.07 99.3635L340.629 103H344.585V97ZM352.497 97V103H361.68L357.992 94.5901L352.497 97ZM326.095 36.8L331.59 34.3901L326.086 21.8409L320.597 34.3967L326.095 36.8ZM317.581 73.092L312.114 70.6205L308.284 79.092H317.581V73.092ZM326.095 54.258L331.581 51.8281L326.151 39.5685L320.628 51.7865L326.095 54.258ZM334.437 73.092V79.092H343.657L339.923 70.6621L334.437 73.092ZM299.779 103H307.433V91H299.779V103ZM312.908 99.4543L320.734 81.9963L309.784 77.0877L301.958 94.5457L312.908 99.4543ZM315.259 85.542H337.103V73.542H315.259V85.542ZM331.588 81.9055L339.07 99.3635L350.1 94.6365L342.618 77.1785L331.588 81.9055ZM344.585 103H352.497V91H344.585V103ZM357.992 94.5901L331.59 34.3901L320.6 39.2098L347.002 99.4099L357.992 94.5901ZM320.597 34.3967L294.281 94.5967L305.277 99.4033L331.593 39.2033L320.597 34.3967ZM323.048 75.5635L331.562 56.7295L320.628 51.7865L312.114 70.6205L323.048 75.5635ZM320.609 56.6879L328.951 75.5219L339.923 70.6621L331.581 51.8281L320.609 56.6879ZM334.437 67.092H317.581V79.092H334.437V67.092ZM357.31 97H351.31V103H357.31V97ZM364.878 97V103H370.878V97H364.878ZM364.878 70.942L364.846 64.9421L358.878 64.9738V70.942H364.878ZM381.046 70.856L381.078 76.8559L381.086 76.8559L381.046 70.856ZM402.46 53.914L408.46 53.9575L408.46 53.9357V53.914H402.46ZM402.46 53.828H408.46V53.8061L408.46 53.7842L402.46 53.828ZM381.046 36.972L381.003 42.9718L381.006 42.9719L381.046 36.972ZM357.31 36.8L357.354 30.8002L351.31 30.7564V36.8H357.31ZM364.878 64.234H358.878V70.234H364.878V64.234ZM364.878 43.594V37.594H358.878V43.594H364.878ZM357.31 103H364.878V91H357.31V103ZM370.878 97V70.942H358.878V97H370.878ZM364.91 76.9419L381.078 76.8559L381.014 64.8561L364.846 64.9421L364.91 76.9419ZM381.086 76.8559C388.146 76.8088 394.938 75.4399 400.112 71.6381C405.599 67.6054 408.406 61.4785 408.46 53.9575L396.461 53.8705C396.429 58.2175 394.978 60.5186 393.006 61.9684C390.718 63.6491 386.846 64.8172 381.006 64.8561L381.086 76.8559ZM408.46 53.914V53.828H396.46V53.914H408.46ZM408.46 53.7842C408.405 46.2908 405.588 40.1875 400.103 36.1725C394.933 32.3884 388.147 31.0192 381.086 30.9721L381.006 42.9719C386.845 43.0108 390.724 44.1786 393.015 45.8555C394.99 47.3015 396.429 49.5832 396.461 53.8718L408.46 53.7842ZM381.09 30.9722L357.354 30.8002L357.267 42.7998L381.003 42.9718L381.09 30.9722ZM351.31 36.8V97H363.31V36.8H351.31ZM370.878 64.234V43.594H358.878V64.234H370.878ZM364.878 49.594H380.186V37.594H364.878V49.594ZM380.186 49.594C385.188 49.594 387.375 50.2328 388.265 50.804C388.542 50.9817 388.664 51.1328 388.779 51.387C388.932 51.7289 389.15 52.472 389.15 53.914H401.15C401.15 48.6296 399.481 43.7443 394.747 40.7055C390.714 38.1162 385.419 37.594 380.186 37.594V49.594ZM389.15 53.914C389.15 55.356 388.932 56.0991 388.779 56.441C388.664 56.6952 388.542 56.8463 388.265 57.024C387.375 57.5952 385.188 58.234 380.186 58.234V70.234C385.419 70.234 390.714 69.7118 394.747 67.1225C399.481 64.0837 401.15 59.1984 401.15 53.914H389.15ZM380.186 58.234H364.878V70.234H380.186V58.234Z" fill="url(#paint3_linear_0_1)"/>
<defs>
<linearGradient id="paint0_linear_0_1" x1="473.654" y1="6.06352" x2="435.645" y2="130.383" gradientUnits="userSpaceOnUse">
<stop stop-color="#3B88E5"/>
<stop offset="1" stop-color="#3B88E5" stop-opacity="0"/>
</linearGradient>
<linearGradient id="paint1_linear_0_1" x1="436.477" y1="81.4898" x2="427.998" y2="109.223" gradientUnits="userSpaceOnUse">
<stop stop-color="#3B88E5"/>
<stop offset="1" stop-color="#3B88E5" stop-opacity="0"/>
</linearGradient>
<linearGradient id="paint2_linear_0_1" x1="203.5" y1="11" x2="188.518" y2="112.394" gradientUnits="userSpaceOnUse">
<stop stop-color="#3A8CE2"/>
<stop offset="1" stop-color="#33AACE" stop-opacity="0"/>
</linearGradient>
<linearGradient id="paint3_linear_0_1" x1="203.5" y1="11" x2="203.5" y2="114" gradientUnits="userSpaceOnUse">
<stop stop-color="#3B88E5"/>
<stop offset="1" stop-color="#3B88E5" stop-opacity="0"/>
</linearGradient>
</defs>
</svg>
